<?xml version="1.0" encoding="UTF-8"?>
<svg id="MarshallLogoWhite" xmlns="http://www.w3.org/2000/svg" viewBox="0 0 1700.79 609.45">
  <defs>
    <style>
      .cls-1 {
        fill: #fff;
      }
    </style>
  </defs>
  <path class="cls-1" d="M1405.73,609.45c22.78,0,45.71-7.07,72.1-21.65,1.25,6.52,2.97,15.03,5.58,21.46l34.67-13.94c-2.05-12.51-3.69-27.9-3.69-42.45v-166.47l-38.76,6.75c-22.72-7.11-41.57-10.42-59.3-10.42-34.05,0-62.89,10.97-83.39,31.73-20.31,20.56-31.05,49.23-31.05,82.91s10.09,60.6,29.17,80.95c18.66,19.9,45.18,31.13,74.68,31.13ZM1420.65,413.28c16.51,0,34.7,4.69,54.07,13.93v132.76c-22.46,11.49-41.51,19.12-61.29,19.12-43.75,0-70.92-30.95-70.92-80.77s30.67-85.05,78.14-85.05Z"/>
  <path class="cls-1" d="M518.66,609.45c22.78,0,45.71-7.07,72.1-21.65,1.25,6.52,2.97,15.03,5.58,21.46l34.67-13.94c-2.05-12.51-3.69-27.9-3.69-42.45v-166.47l-38.76,6.75c-22.72-7.11-41.57-10.42-59.3-10.42-34.05,0-62.89,10.97-83.39,31.73-20.31,20.56-31.05,49.23-31.05,82.91s10.08,60.6,29.17,80.95c18.66,19.9,45.18,31.13,74.68,31.13ZM533.58,413.28c16.51,0,34.7,4.69,54.07,13.93v132.76c-22.46,11.49-41.51,19.12-61.29,19.12-43.75,0-70.92-30.95-70.92-80.77s30.67-85.05,78.14-85.05Z"/>
  <polygon class="cls-1" points="193.83 609.45 187.47 609.45 83.76 367.45 39.07 602.35 0 602.35 69.37 246.68 74.42 246.68 190.89 520.46 307.84 246.68 312.88 246.68 380.99 602.35 339.52 602.35 296.08 366.56 193.83 609.45"/>
  <path class="cls-1" d="M938.95,479.78l-16.97-6.53c-29.96-11.15-42.12-16.43-42.12-35.15,0-15.42,13.1-25.78,32.61-25.78s43.24,9.15,67.27,27.16l6.76-34.96c-26.5-14.8-50.79-21.76-75-21.76-42.35,0-69.25,23.71-69.25,61.87,0,32.7,20.01,46.62,55.86,60.87l20.34,7.93,2.38.97c23.59,9.57,38.11,15.35,38.11,35.13,0,16.54-15.54,27.65-38.23,27.65s-47.97-10.08-77.44-31.36l-6.71,34.68c23.46,19.37,54.82,28.86,83.66,28.86,23.38,0,42.96-6.09,56.63-17.62,13.58-11.44,21.04-27.99,21.04-47.32,0-30.24-17.29-48.96-58.96-64.61Z"/>
  <polygon class="cls-1" points="1573.23 56.63 1133.86 184.25 1162.2 0 1573.23 56.63"/>
  <polygon class="cls-1" points="1700.79 141.73 1247.23 226.79 1686.59 28.35 1700.79 141.73"/>
  <path class="cls-1" d="M722.07,420.04v-33.74l-40.05,6.91v209.15h41.02v-104.38c0-26.77,5.69-43.88,18.45-55.49,12.98-11.82,33.67-18.41,67.13-20.62v-39.13c-33.38-.02-60.78,12.21-86.55,37.3Z"/>
  <polygon class="cls-1" points="1609.23 600.68 1609.23 257.14 1568.75 264.27 1568.75 600.68 1609.23 600.68"/>
  <polygon class="cls-1" points="1700.65 602.35 1700.65 257.2 1660.18 264.33 1660.18 602.35 1700.65 602.35"/>
  <path class="cls-1" d="M1175.86,382.79c-33.68,0-66,17.23-86.94,46.23v-171.82l-39.51,6.97v338.18h39.51v-102.55c0-56.99,40.59-82.94,78.31-82.94,30.61,0,44.26,17.31,44.26,56.12v129.37h39.51v-134.08c0-55.13-26.68-85.49-75.14-85.49Z"/>
</svg>