<?xml version="1.0" encoding="UTF-8"?>
<svg id="PARTS_ICON" xmlns="http://www.w3.org/2000/svg" version="1.1" viewBox="0 0 616 616">
  <!-- Generator: Adobe Illustrator 30.2.1, SVG Export Plug-In . SVG Version: 2.1.1 Build 1)  -->
  <defs>
    <style>
      .st0 {
        fill-rule: currentColor;
      }

      .st0, .st1 {
        fill: evenodd;
      }
    </style>
  </defs>
  <path class="st1" d="M306,168c-78.7,0-142.5,63.8-142.5,142.5s63.8,142.5,142.5,142.5,142.5-63.8,142.5-142.5-63.8-142.5-142.5-142.5ZM306,422c-61.58,0-111.5-49.92-111.5-111.5s49.92-111.5,111.5-111.5,111.5,49.92,111.5,111.5-49.92,111.5-111.5,111.5Z"/>
  <circle class="st1" cx="370.6" cy="127.46" r="19.67"/>
  <circle class="st1" cx="471.52" cy="203.92" r="19.67" transform="translate(222.13 653.05) rotate(-84.35)"/>
  <circle class="st1" cx="505.93" cy="334.66" r="19.67" transform="translate(-27.86 622.81) rotate(-61.85)"/>
  <circle class="st1" cx="449.35" cy="453.16" r="19.67" transform="translate(-139.21 206.45) rotate(-22.5)"/>
  <circle class="st1" cx="330.84" cy="507.44" r="19.67" transform="translate(-274.26 479.13) rotate(-54.22)"/>
  <circle class="st1" cx="200.11" cy="475.33" r="19.67" transform="translate(-314.11 514.86) rotate(-71.57)"/>
  <circle class="st1" cx="125.94" cy="374.41" r="19.67" transform="translate(-133.69 76.7) rotate(-22.5)"/>
  <path class="st0" d="M306,24.5c-3.59,0-7.16.09-10.72.22-5.53-11.73-15.31-19.89-31.85-19.72C101.93,8.48,24.12,169.99,11.13,242.01c-5.69,31.55-.99,48.65,9.08,57.91-.13,3.51-.21,7.03-.21,10.58,0,157.95,128.05,286,286,286s286-128.05,286-286S463.95,24.5,306,24.5ZM306,564.5c-140.28,0-254-113.72-254-254,0,0,0-.02,0-.03,4.15.26,8.4.33,12.65.35,32.68.12,50.33-8.66,53.52-30.58,14.19-116.34,132.6-164.61,160.56-168.2,25.04-3.22,23.25-27.18,22.94-53.52,0-.65-.02-1.31-.04-1.97,1.46-.02,2.92-.06,4.38-.06,140.28,0,254,113.72,254,254s-113.72,254-254,254Z"/>
</svg>