<?xml version="1.0" encoding="UTF-8"?>
<svg id="Layer_3" xmlns="http://www.w3.org/2000/svg" version="1.1" viewBox="0 0 421 420.33">
  <!-- Generator: Adobe Illustrator 30.2.1, SVG Export Plug-In . SVG Version: 2.1.1 Build 1)  -->
  <defs>
    <style>
      .st0 {
        fill-rule: evenodd;
      }

      .st0, .st1 {
        fill: #fff;
      }
    </style>
  </defs>
  <path class="st0" d="M389.29,223.14l-12.77-2.25c.1-2.36.16-4.73.16-7.12,0-2.12-.05-4.22-.13-6.32l12.78-2.19c1.09-.19,1.82-1.22,1.63-2.31l-6.77-39.42c-.19-1.09-1.22-1.82-2.31-1.63l-12.86,2.21c-1.52-4.79-3.25-9.48-5.18-14.06l11.38-6.58c.96-.55,1.28-1.78.73-2.73l-20.02-34.63c-.55-.96-1.78-1.28-2.73-.73l-11.71,6.77c-3.07-3.9-6.31-7.66-9.71-11.27l8.72-10.53c.7-.85.59-2.11-.26-2.82l-30.8-25.52c-.85-.7-2.11-.59-2.82.26l-8.95,10.81c-3.34-2.06-6.76-4-10.26-5.82l4.9-13.24c.38-1.04-.15-2.19-1.18-2.57l-37.51-13.89c-1.04-.38-2.19.15-2.57,1.18l-4.99,13.48c-4.72-1.04-9.51-1.88-14.37-2.52v-14.43c0-1.1-.9-2-2-2h-40c-1.1,0-2,.9-2,2v14.43c-4.57.6-9.08,1.38-13.53,2.34l-4.92-13.51c-.38-1.04-1.53-1.57-2.56-1.19l-37.58,13.7c-1.04.38-1.57,1.53-1.19,2.56l4.84,13.27c-4.37,2.25-8.63,4.69-12.77,7.3l-9.07-10.68c-.72-.84-1.98-.94-2.82-.23l-30.49,25.9c-.84.72-.94,1.98-.23,2.82l8.83,10.4c-2.7,2.94-5.29,5.97-7.77,9.09l-11.67-6.83c-.95-.56-2.18-.24-2.74.72l-20.2,34.52c-.56.95-.24,2.18.72,2.74l11.34,6.64c-1.97,4.6-3.72,9.3-5.27,14.1l-12.86-2.27c-1.09-.19-2.13.53-2.32,1.62l-6.96,39.39c-.19,1.09.53,2.13,1.62,2.32l12.77,2.25c-.1,2.36-.16,4.73-.16,7.12,0,2.12.05,4.22.13,6.32l-12.78,2.19c-1.09.19-1.82,1.22-1.63,2.31l6.77,39.42c.19,1.09,1.22,1.82,2.31,1.63l12.86-2.21c1.52,4.79,3.25,9.48,5.18,14.06l-11.38,6.58c-.96.55-1.28,1.78-.73,2.73l20.02,34.63c.55.96,1.78,1.28,2.73.73l11.71-6.77c3.07,3.9,6.31,7.66,9.71,11.27l-8.72,10.53c-.7.85-.59,2.11.26,2.82l30.8,25.52c.85.7,2.11.59,2.82-.26l8.95-10.81c3.34,2.06,6.76,4,10.26,5.82l-4.9,13.24c-.38,1.04.15,2.19,1.18,2.57l37.51,13.89c1.04.38,2.19-.15,2.57-1.18l4.99-13.48c4.72,1.04,9.51,1.88,14.37,2.52v14.43c0,1.1.9,2,2,2h40c1.1,0,2-.9,2-2v-14.43c4.57-.6,9.08-1.38,13.53-2.34l4.92,13.51c.38,1.04,1.53,1.57,2.56,1.19l37.58-13.7c1.04-.38,1.57-1.53,1.19-2.56l-4.84-13.27c4.37-2.25,8.63-4.69,12.77-7.3l9.07,10.68c.72.84,1.98.94,2.82.23l30.49-25.9c.84-.72.94-1.98.23-2.82l-8.83-10.4c2.7-2.94,5.29-5.97,7.77-9.09l11.67,6.83c.95.56,2.18.24,2.74-.72l20.2-34.52c.56-.95.24-2.18-.72-2.74l-11.34-6.64c1.97-4.6,3.72-9.3,5.27-14.1l12.86,2.27c1.09.19,2.13-.53,2.32-1.62l6.96-39.39c.19-1.09-.53-2.13-1.62-2.32ZM209.68,316.27c-56.33,0-102-45.67-102-102s45.67-102,102-102,102,45.67,102,102-45.67,102-102,102Z"/>
  <ellipse class="st1" cx="209.68" cy="213.77" rx="48.62" ry="48.19"/>
</svg>