<?xml version="1.0" encoding="UTF-8"?>
<svg id="CONFIGURE" xmlns="http://www.w3.org/2000/svg" version="1.1" viewBox="0 0 566.63 568.11">
  <!-- Generator: Adobe Illustrator 30.2.1, SVG Export Plug-In . SVG Version: 2.1.1 Build 1)  -->
  <defs>
    <style>
      .st0 {
        fill: #fff;
        fill-rule: evenodd;
      }
    </style>
  </defs>
  <path class="st0" d="M538.31,245.7l-51.5-19.74c-4.88-17.82-12.04-34.7-21.15-50.3l22.85-49.31c4.42-10.75,10.83-16.04,0-26.87l-22.63-22.63c-9.83-9.83-16.79-3.92-26.87,0l-50.07,22.32c-15.78-9.14-32.85-16.29-50.87-21.12l-18.77-51.2c-4.47-10.73-3.68-19-19-19h-32c-13.91,0-14.64,9.1-19,19l-19.49,50.85c-18.01,4.71-35.08,11.73-50.88,20.74l-49.84-22.21c-10.08-3.92-17.04-9.83-26.87,0l-22.63,22.62c-10.83,10.83-4.42,16.12,0,26.87l22.36,48.24c-9.73,16.33-17.32,34.07-22.39,52.86l-49.27,18.88c-9.9,4.35-19,5.09-19,19v32c0,15.32,8.27,14.52,19,19l48.36,17.73c4.9,19.51,12.52,37.95,22.43,54.88l-21.29,47.77c-3.92,10.08-9.83,17.04,0,26.87l22.63,22.63c10.83,10.83,16.12,4.42,26.87,0l47.05-21.8c16.76,9.88,35,17.52,54.32,22.48l18.64,48.62c4.36,9.9,5.09,19,19,19h32c15.32,0,14.53-8.27,19-19l17.96-48.97c19.33-5.1,37.57-12.87,54.3-22.89l47.24,21.89c10.75,4.42,16.04,10.83,26.87,0l22.63-22.62c9.83-9.83,3.92-16.78,0-26.87l-21.77-48.83c9.28-16.21,16.48-33.78,21.22-52.33l50.56-18.53c10.73-4.47,19-3.68,19-19v-32c0-13.91-9.1-14.64-19-19ZM284.31,434.3c-84.75,0-153.45-68.7-153.45-153.45s68.7-153.45,153.45-153.45,153.45,68.7,153.45,153.45-68.7,153.45-153.45,153.45Z"/>
</svg>