<?xml version="1.0" encoding="UTF-8"?>
<svg id="PARTS_ICON" data-name="PARTS_ICON" xmlns="http://www.w3.org/2000/svg" viewBox="0 0 583.32 591.5">
  <path d="M297.32,163c-78.7,0-142.5,63.8-142.5,142.5s63.8,142.5,142.5,142.5,142.5-63.8,142.5-142.5-63.8-142.5-142.5-142.5ZM297.32,417c-61.58,0-111.5-49.92-111.5-111.5s49.92-111.5,111.5-111.5,111.5,49.92,111.5,111.5-49.92,111.5-111.5,111.5Z" fill="currentColor"/>
  <circle cx="361.92" cy="122.46" r="19.67" fill="currentColor"/>
  <circle cx="462.84" cy="198.92" r="19.67" transform="translate(219.29 639.91) rotate(-84.35)" fill="currentColor"/>
  <circle cx="497.25" cy="329.66" r="19.67" transform="translate(-28.03 612.52) rotate(-61.85)" fill="currentColor"/>
  <circle cx="440.67" cy="448.16" r="19.67" transform="translate(-137.96 202.75) rotate(-22.5)" fill="currentColor"/>
  <circle cx="322.16" cy="502.44" r="19.67" transform="translate(-273.81 470.01) rotate(-54.22)" fill="currentColor"/>
  <circle cx="191.43" cy="470.33" r="19.67" transform="translate(-315.31 503.2) rotate(-71.57)" fill="currentColor"/>
  <circle cx="117.26" cy="369.41" r="19.67" transform="translate(-132.44 73) rotate(-22.5)" fill="currentColor"/>
  <path d="M297.32,19.5c-3.59,0-7.16.09-10.72.22C281.08,7.99,271.3-.17,254.75,0,93.25,3.48,15.44,164.99,2.45,237.01c-5.69,31.55-.99,48.65,9.08,57.91-.13,3.51-.21,7.03-.21,10.58,0,157.95,128.05,286,286,286s286-128.05,286-286S455.27,19.5,297.32,19.5ZM297.32,559.5c-140.28,0-254-113.72-254-254,0,0,0-.02,0-.03,4.15.26,8.4.33,12.65.35,32.68.12,50.33-8.66,53.52-30.58,14.19-116.34,132.6-164.61,160.56-168.2,25.04-3.22,23.25-27.18,22.94-53.52,0-.65-.02-1.31-.04-1.97,1.46-.02,2.92-.06,4.38-.06,140.28,0,254,113.72,254,254s-113.72,254-254,254Z" fill="currentColor" fill-rule="evenodd"/>
</svg>